<?xml version="1.0" encoding="UTF-8" standalone="no"?>
<svg
   shape-rendering="geometricPrecision"
   text-rendering="geometricPrecision"
   image-rendering="optimizeQuality"
   fill-rule="evenodd"
   clip-rule="evenodd"
   viewBox="0 0 866.79724 383.42867"
   version="1.1"
   id="svg4"
   sodipodi:docname="logo-full.svg"
   width="866.79724"
   height="383.42868"
   inkscape:version="1.3.2 (091e20ef0f, 2023-11-25)"
   xmlns:inkscape="http://www.inkscape.org/namespaces/inkscape"
   xmlns:sodipodi="http://sodipodi.sourceforge.net/DTD/sodipodi-0.dtd"
   xmlns="http://www.w3.org/2000/svg"
   xmlns:svg="http://www.w3.org/2000/svg">
  <defs
     id="defs8" />
  <sodipodi:namedview
     id="namedview6"
     pagecolor="#ffffff"
     bordercolor="#666666"
     borderopacity="1.0"
     inkscape:showpageshadow="2"
     inkscape:pageopacity="0.0"
     inkscape:pagecheckerboard="0"
     inkscape:deskcolor="#d1d1d1"
     showgrid="false"
     inkscape:zoom="0.7071068"
     inkscape:cx="375.47369"
     inkscape:cy="181.72644"
     inkscape:window-width="2560"
     inkscape:window-height="1379"
     inkscape:window-x="2256"
     inkscape:window-y="0"
     inkscape:window-maximized="1"
     inkscape:current-layer="svg4" />
  <path
     d="m 414.95187,0.00953 c 31.13919,0 59.50115,12.074211 80.7552,31.844851 l 15.57911,-8.96098 -8.77555,15.8165 c 19.76399,21.56796 31.84302,50.447206 31.84302,82.176499 0,31.30564 -11.75566,59.83827 -31.04408,81.30353 l 8.75017,15.579 -15.37621,-8.76199 c -21.36182,20.30983 -50.11691,32.75634 -81.73166,32.75634 -31.29136,0 -59.76745,-12.18334 -81.05955,-32.12727 l -16.05464,9.24982 9.05451,-16.36212 C 307.42624,181.01352 295.5501,152.35253 295.5501,120.8864 c 0,-32.043823 12.31998,-61.173419 32.42635,-82.805559 l -8.49655,-15.11683 15.05285,8.57583 C 355.74873,11.955361 383.97754,0.00953 414.95187,0.00953 Z m -24.48144,160.93166 -36.03424,20.75274 21.07651,-37.90441 11.14062,3.1004 -77.4073,-21.54228 c 1.12231,27.80726 12.7131,52.88002 30.8919,71.27698 17.81738,18.04391 41.98181,29.6752 68.80931,31.19652 z M 375.70292,95.563297 355.45706,59.533261 391.0284,79.804577 408.90918,13.958091 c -26.81484,1.52774 -50.96023,13.15904 -68.77126,31.1901 -17.72226,17.94121 -29.18626,42.224416 -30.79046,69.203639 l 78.32037,-22.171363 z m 62.811,-15.03979 36.53513,-21.041606 -20.30293,36.524306 -12.95404,-3.60748 78.75787,21.914583 C 518.93306,87.346937 507.48176,63.082981 489.76582,45.148191 471.75823,26.918141 447.27677,15.229061 420.11321,13.913171 Z m 16.21953,63.452173 20.80385,37.01858 -36.94728,-21.05443 -18.43876,67.92624 c 27.15087,-1.33516 51.61332,-13.01781 69.61456,-31.24145 18.18514,-18.4098 29.77596,-43.49539 30.8919,-71.3155 z m -40.1425,-24.063 c -7.67156,8.56125 -15.52472,16.99399 -23.3406,25.45592 l -91.53439,-25.47073 z m 0.60085,0.0257 c -0.0311,-0.16258 -1.34794,0.2785 -0.0861,-0.61203 l 7.5437,-7.68333 -8.12344,8.28361 -25.2033,-23.650783 25.15993,-92.665217 c 3.94245,16.181601 0.32561,103.48089 0.44747,114.21017 0.0149,1.29202 5.69321,-4.15582 7.9159,-6.38319 l 15.80105,-17.113173 91.53437,25.464333 z m 24.55221,25.55864 -22.38902,82.46537 -2.77088,10.19984 -0.0201,-118.22477 c 1.60943,0.47728 17.09649,17.90757 25.17999,25.55956 z"
     id="path2"
     sodipodi:nodetypes="scccscccscccscccsccccccccccccsccccccccsccccccsccccccccccccscccccccccc"
     style="display:inline;stroke-width:0.637976" />
  <path
     style="display:inline;fill:#9558b2;fill-opacity:1;stroke:none;stroke-width:1.84911px;stroke-linecap:butt;stroke-linejoin:miter;stroke-opacity:1"
     d="m 414.56317,119.91069 -119.0256,-0.0194 0.0824,-1.78067 91.1817,-25.742243 z"
     id="path1850"
     sodipodi:nodetypes="ccccc" />
  <path
     style="display:inline;fill:#389826;fill-opacity:1;stroke:none;stroke-width:1.79107px;stroke-linecap:butt;stroke-linejoin:miter;stroke-opacity:1"
     d="M 414.56296,119.91384 414.50926,0.0417 416.49951,0 441.84575,92.358557 Z"
     id="path2048"
     sodipodi:nodetypes="ccccc"
     inkscape:label="path2048" />
  <path
     style="display:inline;fill:#4063d8;fill-opacity:1;stroke:none;stroke-width:1.79107px;stroke-linecap:butt;stroke-linejoin:miter;stroke-opacity:1"
     d="m 534.25722,119.79366 0.11199,2.20693 -92.63184,25.59964 -27.19176,-27.7078 c 39.85373,-0.2798 79.82478,-0.0855 119.71161,-0.0987 z"
     id="path2052"
     sodipodi:nodetypes="ccccc"
     inkscape:label="path2048" />
  <path
     style="fill:#cb3c33;fill-opacity:1;stroke:none;stroke-width:1.79107px;stroke-linecap:butt;stroke-linejoin:miter;stroke-opacity:1"
     d="m 414.57414,119.89764 0.0235,121.90278 -2.72741,-0.0941 -25.61616,-96.50831 z"
     id="path2050"
     sodipodi:nodetypes="ccccc"
     inkscape:label="path2048" />
  <text
     xml:space="preserve"
     style="font-style:normal;font-variant:normal;font-weight:normal;font-stretch:normal;font-size:133.333px;font-family:'Noto Sans';-inkscape-font-specification:'Noto Sans';fill:#000000"
     x="-8.1333122"
     y="351.42877"
     id="text2"><tspan
       sodipodi:role="line"
       id="tspan2"
       x="-8.1333122"
       y="351.42877"
       style="font-size:133.333px">ClimaExplorer</tspan></text>
</svg>
