<?xml version="1.0" encoding="UTF-8" standalone="no"?>
<svg
   shape-rendering="geometricPrecision"
   text-rendering="geometricPrecision"
   image-rendering="optimizeQuality"
   fill-rule="evenodd"
   clip-rule="evenodd"
   viewBox="0 0 431.67831 435.85885"
   version="1.1"
   id="svg4"
   sodipodi:docname="logo-small-white.svg"
   width="431.67831"
   height="435.85886"
   inkscape:version="1.2.2 (b0a8486541, 2022-12-01)"
   xmlns:inkscape="http://www.inkscape.org/namespaces/inkscape"
   xmlns:sodipodi="http://sodipodi.sourceforge.net/DTD/sodipodi-0.dtd"
   xmlns="http://www.w3.org/2000/svg"
   xmlns:svg="http://www.w3.org/2000/svg">
  <defs
     id="defs8" />
  <sodipodi:namedview
     id="namedview6"
     pagecolor="#ffffff"
     bordercolor="#666666"
     borderopacity="1.0"
     inkscape:showpageshadow="2"
     inkscape:pageopacity="0.0"
     inkscape:pagecheckerboard="0"
     inkscape:deskcolor="#d1d1d1"
     showgrid="false"
     inkscape:zoom="1.4142136"
     inkscape:cx="183.84776"
     inkscape:cy="108.18734"
     inkscape:window-width="2560"
     inkscape:window-height="1373"
     inkscape:window-x="0"
     inkscape:window-y="0"
     inkscape:window-maximized="1"
     inkscape:current-layer="svg4" />
  <path
     d="m 215.83641,0.017096 c 56.28279,0 107.54587,21.764444 145.96168,57.40214 L 389.95668,41.266564 374.09525,69.77671 c 35.72258,38.87747 57.55494,90.93395 57.55494,148.12779 0,56.43019 -21.24787,107.86187 -56.11089,146.55421 l 15.81556,28.08204 -27.79186,-15.79399 c -38.61061,36.60962 -90.58424,59.04516 -147.72659,59.04516 -56.55785,0 -108.02721,-21.96115 -146.51179,-57.91122 L 40.30651,394.55403 56.67218,365.06038 C 21.48828,326.28704 0.02264,274.62398 0.02264,217.9045 0.02264,160.14369 22.2905,107.63595 58.63193,68.64278 L 43.27477,41.393843 70.48217,56.852267 C 108.82917,21.550135 159.85158,0.017096 215.83641,0.017096 Z m -44.2492,290.088424 -65.13039,37.40799 38.09492,-68.32484 20.13621,5.58865 -139.9105,-38.83119 c 2.02852,50.12416 22.97841,95.31923 55.835836,128.4808 32.204174,32.52517 75.880374,53.49123 124.369984,56.2335 z M 144.89554,172.25818 108.30199,107.31199 172.59572,143.85219 204.9145,25.160165 C 156.44778,27.914004 112.80598,48.880074 80.613286,81.38209 48.58103,113.72214 27.86033,157.494 24.9608,206.12557 l 141.56082,-39.96513 z m 113.52829,-27.11008 66.03574,-37.92869 -36.69671,65.83714 -23.41389,-6.50269 142.35159,39.50228 C 403.77811,157.44773 383.08035,113.71056 351.05953,81.38209 318.51156,48.521389 274.26233,27.451162 225.16531,25.079194 Z m 29.31614,114.37614 37.60209,66.72809 -66.78068,-37.95181 -33.3273,122.44089 c 49.07408,-2.4067 93.28894,-23.46533 125.82545,-56.31448 32.86888,-33.1847 53.81881,-78.40291 55.83583,-128.55023 z m -72.55591,-43.37492 c -13.86603,15.43213 -28.06029,30.63262 -42.18718,45.88574 L 7.55226,216.12262 Z m 1.086,0.0463 c -0.0562,-0.29306 -2.43634,0.50201 -0.15559,-1.10322 l 13.63491,-13.84963 -14.68277,14.93168 -45.55393,-42.63188 45.47553,-167.034303 c 7.12582,29.168247 0.58854,186.530153 0.80879,205.870293 0.0269,2.32894 10.29024,-7.4911 14.30766,-11.50605 l 28.55974,-30.84746 165.4446,45.90089 z m 44.37712,46.0709 -40.46723,148.64849 -5.00826,18.38579 -0.0363,-213.10684 c 2.90898,0.86033 30.9012,32.27941 45.5118,46.07256 z"
     id="path2"
     sodipodi:nodetypes="scccscccscccscccsccccccccccccsccccccccsccccccsccccccccccccscccccccccc"
     style="display:inline;stroke-width:1.152;stroke-dasharray:none;fill:#ffffff"
     inkscape:label="path2" />
  <path
     style="display:inline;fill:#9558b2;fill-opacity:1;stroke:none;stroke-width:3.33765px;stroke-linecap:butt;stroke-linejoin:miter;stroke-opacity:1"
     d="M 215.13384,216.14572 0,216.11072 0.14886,212.90096 164.956,166.49911 Z"
     id="path1850"
     sodipodi:nodetypes="ccccc" />
  <path
     style="display:inline;fill:#389826;fill-opacity:1;stroke:none;stroke-width:3.23289px;stroke-linecap:butt;stroke-linejoin:miter;stroke-opacity:1"
     d="M 215.13347,216.15141 215.03647,0.07508 218.63378,0 264.44606,166.48155 Z"
     id="path2048"
     sodipodi:nodetypes="ccccc"
     inkscape:label="path2048" />
  <path
     style="display:inline;fill:#4063d8;fill-opacity:1;stroke:none;stroke-width:3.23289px;stroke-linecap:butt;stroke-linejoin:miter;stroke-opacity:1"
     d="m 431.4759,215.93478 0.20241,3.97811 -167.42823,46.1448 -49.14798,-49.94488 c 72.03397,-0.50435 144.28,-0.15414 216.3738,-0.17796 z"
     id="path2052"
     sodipodi:nodetypes="ccccc"
     inkscape:label="path2048" />
  <path
     style="display:inline;fill:#cb3c33;fill-opacity:1;stroke:none;stroke-width:3.23289px;stroke-linecap:butt;stroke-linejoin:miter;stroke-opacity:1"
     d="m 215.15367,216.1222 0.0424,219.73667 -4.92968,-0.16969 -46.30015,-173.9617 z"
     id="path2050"
     sodipodi:nodetypes="ccccc"
     inkscape:label="path2048" />
</svg>
